<mxfile host="65bd71144e">
    <diagram id="N9JyNn_uKFVy7AtVER5D" name="Page-1">
        <mxGraphModel dx="1880" dy="773" grid="1" gridSize="10" guides="1" tooltips="1" connect="1" arrows="1" fold="1" page="1" pageScale="1" pageWidth="850" pageHeight="1100" math="0" shadow="0">
            <root>
                <mxCell id="0"/>
                <mxCell id="1" parent="0"/>
                <mxCell id="29" value="ID stage" style="externalPins=0;recursiveResize=0;shadow=0;dashed=0;align=center;html=1;strokeWidth=1;shape=mxgraph.rtl.abstract.entity;container=1;collapsible=0;kind=sequential;drawPins=0;left=3;right=2;bottom=0;top=0;labelPosition=center;verticalLabelPosition=top;verticalAlign=bottom;" parent="1" vertex="1">
                    <mxGeometry x="530" y="130" width="380" height="490" as="geometry"/>
                </mxCell>
                <mxCell id="54" value="DECODER" style="externalPins=0;recursiveResize=0;shadow=0;dashed=0;align=center;html=1;strokeWidth=1;shape=mxgraph.rtl.abstract.entity;container=1;collapsible=0;kind=sequential;drawPins=0;left=3;right=2;bottom=0;top=0;fontSize=11;labelPosition=center;verticalLabelPosition=top;verticalAlign=bottom;" vertex="1" parent="29">
                    <mxGeometry x="70" y="250" width="120" height="140" as="geometry"/>
                </mxCell>
                <mxCell id="30" value="EX stage" style="externalPins=0;recursiveResize=0;shadow=0;dashed=0;align=center;html=1;strokeWidth=1;shape=mxgraph.rtl.abstract.entity;container=1;collapsible=0;kind=sequential;drawPins=0;left=3;right=2;bottom=0;top=0;labelPosition=center;verticalLabelPosition=top;verticalAlign=bottom;" parent="1" vertex="1">
                    <mxGeometry x="1140" y="295" width="210" height="290" as="geometry"/>
                </mxCell>
                <mxCell id="41" value="" style="externalPins=0;recursiveResize=0;shadow=0;dashed=0;align=center;html=1;strokeWidth=1;shape=mxgraph.rtl.abstract.entity;container=1;collapsible=0;kind=demux;drawPins=0;left=1;right=4;bottom=0;top=0;" vertex="1" parent="30">
                    <mxGeometry x="50" y="42.5" width="10" height="75" as="geometry"/>
                </mxCell>
                <mxCell id="32" value="WB stage" style="externalPins=0;recursiveResize=0;shadow=0;dashed=0;align=center;html=1;strokeWidth=1;shape=mxgraph.rtl.abstract.entity;container=1;collapsible=0;kind=sequential;drawPins=0;left=3;right=2;bottom=0;top=0;labelPosition=center;verticalLabelPosition=bottom;verticalAlign=top;fontSize=20;" parent="1" vertex="1">
                    <mxGeometry x="530" y="850" width="380" height="220" as="geometry"/>
                </mxCell>
                <mxCell id="49" value="" style="externalPins=0;recursiveResize=0;shadow=0;dashed=0;align=center;html=1;strokeWidth=1;shape=mxgraph.rtl.abstract.entity;container=1;collapsible=0;kind=demux;drawPins=0;left=1;right=4;bottom=0;top=0;fontSize=11;" vertex="1" parent="32">
                    <mxGeometry x="30" y="110" width="20" height="90" as="geometry"/>
                </mxCell>
                <mxCell id="42" style="edgeStyle=orthogonalEdgeStyle;html=1;entryX=0;entryY=0;entryDx=20;entryDy=60;entryPerimeter=0;" edge="1" parent="1" source="41" target="49">
                    <mxGeometry relative="1" as="geometry">
                        <Array as="points">
                            <mxPoint x="860" y="375"/>
                            <mxPoint x="860" y="1020"/>
                        </Array>
                    </mxGeometry>
                </mxCell>
                <mxCell id="46" value="vec_result_ex_o" style="edgeLabel;html=1;align=center;verticalAlign=middle;resizable=0;points=[];fontSize=6;" vertex="1" connectable="0" parent="42">
                    <mxGeometry x="-0.8019" y="-1" relative="1" as="geometry">
                        <mxPoint x="94" y="-14" as="offset"/>
                    </mxGeometry>
                </mxCell>
                <mxCell id="48" style="edgeStyle=orthogonalEdgeStyle;html=1;fontSize=11;entryX=0;entryY=0;entryDx=10;entryDy=20;entryPerimeter=0;" edge="1" parent="1" source="47" target="41">
                    <mxGeometry relative="1" as="geometry">
                        <mxPoint x="1140" y="100" as="targetPoint"/>
                        <Array as="points">
                            <mxPoint x="1210" y="160"/>
                            <mxPoint x="1210" y="358"/>
                        </Array>
                    </mxGeometry>
                </mxCell>
                <mxCell id="68" value="&lt;div style=&quot;background-color: rgb(31, 31, 31); font-family: &amp;quot;Droid Sans Mono&amp;quot;, &amp;quot;monospace&amp;quot;, monospace; font-size: 8px; line-height: 19px;&quot;&gt;&lt;span style=&quot;font-size: 8px;&quot;&gt;alu_operand_a_ex&lt;/span&gt;&lt;/div&gt;" style="edgeLabel;html=1;align=center;verticalAlign=middle;resizable=0;points=[];fontSize=8;fontColor=#FFFFFF;" vertex="1" connectable="0" parent="48">
                    <mxGeometry x="0.4796" y="1" relative="1" as="geometry">
                        <mxPoint as="offset"/>
                    </mxGeometry>
                </mxCell>
                <mxCell id="59" style="edgeStyle=orthogonalEdgeStyle;html=1;exitX=0;exitY=0;exitDx=140;exitDy=80;exitPerimeter=0;entryX=-0.01;entryY=0.165;entryDx=0;entryDy=0;entryPerimeter=0;fontSize=11;" edge="1" parent="1" source="47" target="29">
                    <mxGeometry relative="1" as="geometry"/>
                </mxCell>
                <mxCell id="47" value="RF" style="externalPins=0;recursiveResize=0;shadow=0;dashed=0;align=center;html=1;strokeWidth=1;shape=mxgraph.rtl.abstract.entity;container=1;collapsible=0;kind=sequential;drawPins=0;left=3;right=2;bottom=0;top=0;fontSize=20;labelPosition=center;verticalLabelPosition=middle;verticalAlign=middle;" vertex="1" parent="1">
                    <mxGeometry x="-85" y="130" width="140" height="120" as="geometry"/>
                </mxCell>
                <mxCell id="60" style="edgeStyle=orthogonalEdgeStyle;html=1;exitX=0;exitY=0;exitDx=270;exitDy=130;exitPerimeter=0;entryX=-0.01;entryY=0.883;entryDx=0;entryDy=0;entryPerimeter=0;fontSize=11;" edge="1" parent="1" source="50" target="29">
                    <mxGeometry relative="1" as="geometry"/>
                </mxCell>
                <mxCell id="65" value="&lt;div style=&quot;background-color: rgb(31, 31, 31); font-family: &amp;quot;Droid Sans Mono&amp;quot;, &amp;quot;monospace&amp;quot;, monospace; font-size: 8px; line-height: 19px;&quot;&gt;&lt;span style=&quot;font-size: 8px;&quot;&gt;vrf_rdata_a,&lt;/span&gt;&lt;/div&gt;&lt;div style=&quot;background-color: rgb(31, 31, 31); font-family: &amp;quot;Droid Sans Mono&amp;quot;, &amp;quot;monospace&amp;quot;, monospace; font-size: 8px; line-height: 19px;&quot;&gt;&lt;div style=&quot;line-height: 19px; font-size: 8px;&quot;&gt;&lt;span style=&quot;font-size: 8px;&quot;&gt;vrf_rdata_b,&lt;/span&gt;&lt;/div&gt;&lt;div style=&quot;line-height: 19px; font-size: 8px;&quot;&gt;&lt;div style=&quot;line-height: 19px; font-size: 8px;&quot;&gt;&lt;span style=&quot;font-size: 8px;&quot;&gt;vrf_rdata_c&lt;/span&gt;&lt;/div&gt;&lt;/div&gt;&lt;/div&gt;" style="edgeLabel;html=1;align=center;verticalAlign=middle;resizable=0;points=[];fontSize=8;fontColor=#FFFFFF;" vertex="1" connectable="0" parent="60">
                    <mxGeometry x="0.3562" relative="1" as="geometry">
                        <mxPoint as="offset"/>
                    </mxGeometry>
                </mxCell>
                <mxCell id="50" value="VRF" style="externalPins=0;recursiveResize=0;shadow=0;dashed=0;align=center;html=1;strokeWidth=1;shape=mxgraph.rtl.abstract.entity;container=1;collapsible=0;kind=sequential;drawPins=0;left=3;right=2;bottom=0;top=0;fontSize=20;labelPosition=center;verticalLabelPosition=middle;verticalAlign=middle;" vertex="1" parent="1">
                    <mxGeometry x="-150" y="490" width="270" height="390" as="geometry"/>
                </mxCell>
                <mxCell id="52" style="edgeStyle=orthogonalEdgeStyle;html=1;entryX=0;entryY=0;entryDx=20;entryDy=20;entryPerimeter=0;fontSize=20;" edge="1" parent="1" source="51" target="49">
                    <mxGeometry relative="1" as="geometry"/>
                </mxCell>
                <mxCell id="51" value="LSU" style="externalPins=0;recursiveResize=0;shadow=0;dashed=0;align=center;html=1;strokeWidth=1;shape=mxgraph.rtl.abstract.entity;container=1;collapsible=0;kind=sequential;drawPins=0;left=3;right=2;bottom=0;top=0;fontSize=20;labelPosition=center;verticalLabelPosition=bottom;verticalAlign=top;" vertex="1" parent="1">
                    <mxGeometry x="1080" y="850" width="260" height="220" as="geometry"/>
                </mxCell>
                <mxCell id="53" style="edgeStyle=orthogonalEdgeStyle;html=1;exitX=0;exitY=0;exitDx=0;exitDy=50;exitPerimeter=0;entryX=0.185;entryY=1;entryDx=0;entryDy=0;entryPerimeter=0;fontSize=20;" edge="1" parent="1" source="49" target="50">
                    <mxGeometry relative="1" as="geometry"/>
                </mxCell>
                <mxCell id="61" value="&lt;div style=&quot;background-color: rgb(31, 31, 31); font-family: &amp;quot;Droid Sans Mono&amp;quot;, &amp;quot;monospace&amp;quot;, monospace; font-size: 8px; line-height: 19px;&quot;&gt;&lt;span style=&quot;font-size: 8px;&quot;&gt;vrf_wdata_wb&lt;/span&gt;&lt;/div&gt;" style="edgeLabel;html=1;align=center;verticalAlign=middle;resizable=0;points=[];fontSize=8;fontColor=#FFFFFF;" vertex="1" connectable="0" parent="53">
                    <mxGeometry x="0.2081" relative="1" as="geometry">
                        <mxPoint as="offset"/>
                    </mxGeometry>
                </mxCell>
                <mxCell id="55" value="" style="endArrow=classic;html=1;fontSize=11;exitX=0.248;exitY=0.995;exitDx=0;exitDy=0;exitPerimeter=0;edgeStyle=orthogonalEdgeStyle;entryX=0.348;entryY=1.01;entryDx=0;entryDy=0;entryPerimeter=0;" edge="1" parent="1" source="54" target="50">
                    <mxGeometry width="50" height="50" relative="1" as="geometry">
                        <mxPoint x="610" y="750" as="sourcePoint"/>
                        <mxPoint x="660" y="700" as="targetPoint"/>
                        <Array as="points">
                            <mxPoint x="630" y="940"/>
                            <mxPoint x="-56" y="940"/>
                        </Array>
                    </mxGeometry>
                </mxCell>
                <mxCell id="63" value="&lt;div style=&quot;background-color: rgb(31, 31, 31); font-family: &amp;quot;Droid Sans Mono&amp;quot;, &amp;quot;monospace&amp;quot;, monospace; font-size: 8px; line-height: 19px;&quot;&gt;&lt;span style=&quot;font-size: 8px;&quot;&gt;rf_waddr_wb&lt;/span&gt;&lt;/div&gt;" style="edgeLabel;html=1;align=center;verticalAlign=middle;resizable=0;points=[];fontSize=8;fontColor=#FFFFFF;" vertex="1" connectable="0" parent="55">
                    <mxGeometry x="0.268" y="2" relative="1" as="geometry">
                        <mxPoint x="-1" as="offset"/>
                    </mxGeometry>
                </mxCell>
                <mxCell id="66" value="&lt;div style=&quot;background-color: rgb(31, 31, 31); font-family: &amp;quot;Droid Sans Mono&amp;quot;, &amp;quot;monospace&amp;quot;, monospace; font-size: 8px; line-height: 19px;&quot;&gt;&lt;div style=&quot;line-height: 19px; font-size: 8px;&quot;&gt;&lt;span style=&quot;font-size: 8px;&quot;&gt;rf_waddr_id&lt;/span&gt;&lt;/div&gt;&lt;/div&gt;" style="edgeLabel;html=1;align=center;verticalAlign=middle;resizable=0;points=[];fontSize=8;fontColor=#FFFFFF;" vertex="1" connectable="0" parent="55">
                    <mxGeometry x="-0.5687" y="-2" relative="1" as="geometry">
                        <mxPoint as="offset"/>
                    </mxGeometry>
                </mxCell>
                <mxCell id="56" style="edgeStyle=orthogonalEdgeStyle;html=1;exitX=0;exitY=0;exitDx=0;exitDy=40;exitPerimeter=0;entryX=0.206;entryY=0.999;entryDx=0;entryDy=0;entryPerimeter=0;fontSize=11;" edge="1" parent="1" source="54" target="47">
                    <mxGeometry relative="1" as="geometry"/>
                </mxCell>
                <mxCell id="64" value="&lt;div style=&quot;background-color: rgb(31, 31, 31); font-family: &amp;quot;Droid Sans Mono&amp;quot;, &amp;quot;monospace&amp;quot;, monospace; font-size: 8px; line-height: 19px;&quot;&gt;&lt;span style=&quot;font-size: 8px;&quot;&gt;rf_raddr_a,&amp;nbsp;&lt;/span&gt;&lt;span style=&quot;font-size: 8px;&quot;&gt;rf_raddr_b&lt;/span&gt;&lt;/div&gt;" style="edgeLabel;html=1;align=center;verticalAlign=middle;resizable=0;points=[];fontSize=8;fontColor=#FFFFFF;" vertex="1" connectable="0" parent="56">
                    <mxGeometry x="-0.3271" y="-4" relative="1" as="geometry">
                        <mxPoint x="-12" y="4" as="offset"/>
                    </mxGeometry>
                </mxCell>
                <mxCell id="57" value="" style="endArrow=classic;html=1;fontSize=11;exitX=0.002;exitY=0.968;exitDx=0;exitDy=0;exitPerimeter=0;entryX=0.352;entryY=-0.003;entryDx=0;entryDy=0;entryPerimeter=0;" edge="1" parent="1" source="56" target="50">
                    <mxGeometry width="50" height="50" relative="1" as="geometry">
                        <mxPoint x="-300" y="470" as="sourcePoint"/>
                        <mxPoint x="-250" y="420" as="targetPoint"/>
                    </mxGeometry>
                </mxCell>
                <mxCell id="58" style="edgeStyle=orthogonalEdgeStyle;html=1;exitX=0;exitY=0;exitDx=0;exitDy=80;exitPerimeter=0;entryX=0.535;entryY=-0.003;entryDx=0;entryDy=0;entryPerimeter=0;fontSize=11;" edge="1" parent="1" source="54" target="50">
                    <mxGeometry relative="1" as="geometry">
                        <Array as="points">
                            <mxPoint x="-6" y="460"/>
                        </Array>
                    </mxGeometry>
                </mxCell>
                <mxCell id="62" value="" style="endArrow=classic;html=1;fontSize=11;fontColor=#FFFFFF;entryX=0.409;entryY=1.018;entryDx=0;entryDy=0;entryPerimeter=0;exitX=0.398;exitY=0.998;exitDx=0;exitDy=0;exitPerimeter=0;edgeStyle=orthogonalEdgeStyle;" edge="1" parent="1" source="55" target="47">
                    <mxGeometry width="50" height="50" relative="1" as="geometry">
                        <mxPoint x="120" y="350" as="sourcePoint"/>
                        <mxPoint x="170" y="300" as="targetPoint"/>
                        <Array as="points">
                            <mxPoint x="217" y="340"/>
                            <mxPoint x="-28" y="340"/>
                        </Array>
                    </mxGeometry>
                </mxCell>
            </root>
        </mxGraphModel>
    </diagram>
</mxfile>